<svg xmlns="http://www.w3.org/2000/svg" width="273" height="65" viewBox="0 0 273 65" fill="none">
  <path d="M0 13.9243C0 6.23413 6.28416 0 14.0361 0H50.8807C58.6326 0 64.9168 6.23413 64.9168 13.9243V50.4757C64.9168 58.1659 58.6326 64.4 50.8807 64.4H14.0361C6.28416 64.4 0 58.1659 0 50.4757V13.9243Z" fill="#D9D9D9"/>
  <path d="M0 13.9243C0 6.23413 6.28416 0 14.0361 0H50.8807C58.6326 0 64.9168 6.23413 64.9168 13.9243V50.4757C64.9168 58.1659 58.6326 64.4 50.8807 64.4H14.0361C6.28416 64.4 0 58.1659 0 50.4757V13.9243Z" fill="url(#paint0_linear_1725_1108)"/>
  <path d="M56.6809 47.9192L56.9095 48.6374C56.9922 48.8971 56.7532 49.1451 56.4879 49.0749L54.0167 48.4212C52.9118 48.1289 51.7733 47.9809 50.6299 47.9809C49.6709 47.9809 48.7147 48.085 47.7785 48.2914L46.3383 48.6089L43.489 49.0438C42.6464 49.1724 41.7953 49.237 40.9428 49.237H40.6941C39.1898 49.237 37.6939 49.0138 36.2561 48.5749L36.1114 48.5308C34.9159 48.1658 33.7752 47.6433 32.72 46.9771C31.4668 46.186 30.3489 45.2016 29.4082 44.0612L29.3387 43.9769C28.4373 42.8839 27.7013 41.6665 27.1538 40.3629L27.1148 40.2701C26.6378 39.1346 26.3014 37.9459 26.1129 36.73L25.9367 35.5944C25.8215 34.8515 25.7637 34.1009 25.7637 33.3493V32.9083C25.7637 31.25 26.0947 29.6081 26.7376 28.0774C27.1419 27.1149 27.6653 26.2062 28.2959 25.372L28.3983 25.2366C28.9617 24.4914 29.5991 23.8042 30.3009 23.1854L30.3844 23.1117C31.5179 22.1122 32.7964 21.2873 34.1771 20.6647L34.3675 20.5788C35.172 20.2161 36.0045 19.9179 36.857 19.6873L36.9126 19.6722C38.3365 19.287 39.8059 19.0918 41.2818 19.0918C42.5385 19.0918 43.7911 19.2333 45.0157 19.5137L45.8291 19.6999C46.7982 19.9217 47.7373 20.2568 48.6269 20.698C49.8365 21.298 50.9407 22.0875 51.897 23.0362L52.098 23.2356C52.6885 23.8214 53.2263 24.4573 53.7052 25.136L54.2185 25.8636C54.8714 26.7889 55.4147 27.7857 55.8375 28.8343C56.256 29.8722 56.5538 30.9541 56.7251 32.0589L56.7373 32.1374C56.9779 33.6889 56.9779 35.2679 56.7373 36.8194L56.4673 38.5605C55.6403 41.6368 55.7144 44.8832 56.6809 47.9192Z" fill="url(#paint1_linear_1725_1108)"/>
  <path d="M41.6219 42.8954C37.8457 42.8954 35.4811 40.2263 35.4811 35.9426C35.4811 31.6496 37.8457 28.9711 41.6219 28.9711C45.3893 28.9711 47.7627 31.6496 47.7627 35.9426C47.7627 40.2263 45.3893 42.8954 41.6219 42.8954ZM41.6219 40.5436C43.7041 40.5436 45.0364 38.7611 45.0364 35.9426C45.0364 33.1148 43.7041 31.3229 41.6219 31.3229C39.5397 31.3229 38.1986 33.1148 38.1986 35.9426C38.1986 38.7611 39.5309 40.5436 41.6219 40.5436Z" fill="#44C965"/>
  <path d="M38.299 27.8406C37.7723 27.8406 37.4736 27.4492 37.4736 26.9078C37.4736 26.6912 37.4972 26.4747 37.5443 26.2831C37.8037 25.1087 38.692 24.3674 39.8003 24.3674C40.6257 24.3674 41.2074 24.7422 41.9069 25.4085C42.4336 25.9083 42.7873 26.1665 43.1646 26.1665C43.6284 26.1665 43.8564 25.8666 44.0136 25.1587C44.1 24.7422 44.3594 24.4757 44.7839 24.4757C45.2791 24.4757 45.5778 24.8838 45.5778 25.4085C45.5778 25.6251 45.5542 25.8416 45.5071 26.0415C45.2555 27.166 44.4302 27.9406 43.314 27.9406C42.5201 27.9406 41.9227 27.5908 41.0266 26.7495C40.6493 26.3997 40.3506 26.1415 39.9497 26.1415C39.4545 26.1415 39.1872 26.4747 39.0457 27.1576C38.9671 27.5658 38.7077 27.8406 38.299 27.8406Z" fill="#44C965"/>
  <g filter="url(#filter0_d_1725_1108)">
    <path d="M8.14171 41.011L7.91312 41.7291C7.83043 41.9889 8.06936 42.2369 8.33469 42.1667L10.8059 41.513C11.9107 41.2207 13.0493 41.0727 14.1927 41.0727C15.1517 41.0727 16.1079 41.1768 17.0441 41.3832L18.4843 41.7007L21.3336 42.1356C22.1761 42.2642 23.0273 42.3288 23.8798 42.3288H24.1285C25.6328 42.3288 27.1287 42.1056 28.5665 41.6667L28.7112 41.6226C29.9067 41.2576 31.0474 40.7351 32.1026 40.0689C33.3558 39.2778 34.4737 38.2934 35.4143 37.153L35.4839 37.0687C36.3853 35.9757 37.1213 34.7583 37.6688 33.4547L37.7078 33.3619C38.1847 32.2264 38.5212 31.0377 38.7097 29.8218L38.8858 28.6862C39.0011 27.9433 39.0589 27.1927 39.0589 26.4411V26.0001C39.0589 24.3418 38.7279 22.6999 38.085 21.1692C37.6807 20.2067 37.1573 19.298 36.5267 18.4638L36.4243 18.3284C35.8609 17.5832 35.2235 16.896 34.5217 16.2772L34.4382 16.2035C33.3047 15.204 32.0262 14.3791 30.6455 13.7565L30.4551 13.6706C29.6506 13.3079 28.8181 13.0097 27.9656 12.7791L27.91 12.764C26.4861 12.3788 25.0167 12.1836 23.5408 12.1836C22.2841 12.1836 21.0315 12.3251 19.8069 12.6055L18.9935 12.7917C18.0244 13.0135 17.0853 13.3486 16.1957 13.7898C14.9861 14.3898 13.8819 15.1793 12.9256 16.128L12.7246 16.3274C12.1341 16.9132 11.5963 17.5491 11.1174 18.2278L10.604 18.9554C9.95115 19.8806 9.40792 20.8775 8.98509 21.9261C8.5666 22.964 8.26881 24.0458 8.09747 25.1507L8.0853 25.2292C7.84468 26.7807 7.84468 28.3597 8.0853 29.9112L8.35532 31.6523C9.18224 34.7286 9.10815 37.975 8.14171 41.011Z" fill="white"/>
    <path d="M17.6183 35.0125C16.6117 35.0125 15.9799 34.4282 15.9799 33.5039C15.9799 33.2384 16.0549 32.8772 16.1941 32.4841L20.4133 21.0852C20.8631 19.8422 21.6234 19.2686 22.8442 19.2686C24.1078 19.2686 24.8574 19.821 25.3179 21.0745L29.5585 32.4841C29.7084 32.8984 29.762 33.1852 29.762 33.5039C29.762 34.3857 29.0873 35.0125 28.145 35.0125C27.2347 35.0125 26.7528 34.5982 26.4637 33.5995L25.6498 31.1774H20.0706L19.2568 33.5677C18.9569 34.5875 18.475 35.0125 17.6183 35.0125ZM20.7774 28.6915H24.9002L22.8549 22.4131H22.7799L20.7774 28.6915Z" fill="#5BD266"/>
  </g>
  <path d="M97.7359 51.9268V23.0533H87V15.3156H117.753V23.0533H107.017V51.9268H97.7359Z" fill="#212B36"/>
  <path d="M120.146 51.9268V25.546H129.076V51.9268H120.146ZM119.945 21.807V13.498H129.326V21.807H119.945Z" fill="#212B36"/>
  <path d="M133.595 51.9268V13.7058H142.525V51.9268H133.595Z" fill="#212B36"/>
  <path d="M147.044 51.9268V32.7124C147.044 31.5353 147.011 30.3409 146.944 29.1292C146.877 27.9175 146.777 26.7231 146.643 25.546H155.272L155.773 30.1159H155.222C155.957 28.5233 157.044 27.277 158.483 26.3769C159.921 25.4421 161.61 24.9747 163.549 24.9747C165.422 24.9747 167.011 25.4421 168.315 26.3769C169.653 27.277 170.623 28.7138 171.225 30.6871H170.372C171.208 28.8869 172.412 27.4847 173.984 26.4807C175.59 25.4767 177.379 24.9747 179.352 24.9747C182.262 24.9747 184.436 25.8922 185.874 27.7271C187.312 29.5273 188.031 32.3489 188.031 36.1918V51.9268H179.051V36.5034C179.051 34.8762 178.817 33.7337 178.349 33.0759C177.881 32.3835 177.128 32.0373 176.091 32.0373C174.787 32.0373 173.767 32.522 173.031 33.4914C172.329 34.4608 171.978 35.7937 171.978 37.4901V51.9268H163.048V36.5034C163.048 34.8762 162.797 33.7337 162.295 33.0759C161.827 32.3835 161.091 32.0373 160.088 32.0373C158.784 32.0373 157.763 32.522 157.028 33.4914C156.325 34.4608 155.974 35.7937 155.974 37.4901V51.9268H147.044Z" fill="#212B36"/>
  <path d="M205.13 52.498C202.287 52.498 199.829 51.9441 197.755 50.8363C195.682 49.7284 194.076 48.1532 192.939 46.1106C191.802 44.0333 191.233 41.5753 191.233 38.7364C191.233 35.8629 191.802 33.4048 192.939 31.3622C194.076 29.3196 195.682 27.7444 197.755 26.6365C199.829 25.5287 202.287 24.9747 205.13 24.9747C207.939 24.9747 210.381 25.5287 212.454 26.6365C214.528 27.7444 216.133 29.3369 217.271 31.4142C218.408 33.4568 218.976 35.8975 218.976 38.7364C218.976 41.5407 218.408 43.9814 217.271 46.0586C216.133 48.1359 214.528 49.7284 212.454 50.8363C210.381 51.9441 207.939 52.498 205.13 52.498ZM205.13 45.6432C206.602 45.6432 207.772 45.1066 208.642 44.0333C209.511 42.9255 209.946 41.1598 209.946 38.7364C209.946 36.313 209.511 34.5646 208.642 33.4914C207.772 32.3835 206.602 31.8296 205.13 31.8296C203.625 31.8296 202.438 32.3835 201.568 33.4914C200.698 34.5646 200.264 36.313 200.264 38.7364C200.264 41.1598 200.698 42.9255 201.568 44.0333C202.438 45.1066 203.625 45.6432 205.13 45.6432Z" fill="#212B36"/>
  <path d="M235.24 52.498C232.431 52.498 229.972 51.9441 227.865 50.8363C225.758 49.7284 224.12 48.1532 222.949 46.1106C221.778 44.0333 221.193 41.558 221.193 38.6845C221.193 35.811 221.778 33.3529 222.949 31.3103C224.12 29.2677 225.758 27.7098 227.865 26.6365C229.972 25.5287 232.431 24.9747 235.24 24.9747C236.979 24.9747 238.685 25.2171 240.357 25.7018C242.029 26.1865 243.384 26.8789 244.421 27.779L241.912 34.0626C241.11 33.3702 240.19 32.8509 239.153 32.5047C238.15 32.1239 237.163 31.9335 236.193 31.9335C234.354 31.9335 232.916 32.5047 231.879 33.6472C230.875 34.7897 230.374 36.4688 230.374 38.6845C230.374 40.9002 230.875 42.5966 231.879 43.7737C232.916 44.9162 234.354 45.4874 236.193 45.4874C237.13 45.4874 238.116 45.3143 239.153 44.9681C240.19 44.5873 241.11 44.068 241.912 43.4102L244.421 49.6938C243.351 50.5593 241.979 51.2517 240.307 51.771C238.668 52.2557 236.979 52.498 235.24 52.498Z" fill="#212B36"/>
  <path d="M247.113 51.9268V13.7058H256.043V30.1678H255.291C256.127 28.4714 257.314 27.1905 258.853 26.3249C260.391 25.4248 262.147 24.9747 264.12 24.9747C267.097 24.9747 269.321 25.8922 270.793 27.7271C272.264 29.562 273 32.3489 273 36.0879V51.9268H264.07V36.5034C264.07 34.9108 263.786 33.7684 263.217 33.0759C262.682 32.3835 261.863 32.0373 260.759 32.0373C259.321 32.0373 258.167 32.5047 257.297 33.4395C256.461 34.3742 256.043 35.6032 256.043 37.1265V51.9268H247.113Z" fill="#212B36"/>
  <defs>
    <filter id="filter0_d_1725_1108" x="0.0964842" y="4.38359" width="48.7621" height="47.745" filterUnits="userSpaceOnUse" color-interpolation-filters="sRGB">
      <feFlood flood-opacity="0" result="BackgroundImageFix"/>
      <feColorMatrix in="SourceAlpha" type="matrix" values="0 0 0 0 0 0 0 0 0 0 0 0 0 0 0 0 0 0 127 0" result="hardAlpha"/>
      <feOffset dx="1" dy="1"/>
      <feGaussianBlur stdDeviation="4.4"/>
      <feComposite in2="hardAlpha" operator="out"/>
      <feColorMatrix type="matrix" values="0 0 0 0 0.102883 0 0 0 0 0.494613 0 0 0 0 0.202277 0 0 0 0.18 0"/>
      <feBlend mode="normal" in2="BackgroundImageFix" result="effect1_dropShadow_1725_1108"/>
      <feBlend mode="normal" in="SourceGraphic" in2="effect1_dropShadow_1725_1108" result="shape"/>
    </filter>
    <linearGradient id="paint0_linear_1725_1108" x1="-4.38627" y1="-5.71557e-07" x2="64.3806" y2="67.125" gradientUnits="userSpaceOnUse">
      <stop stop-color="#84E36A"/>
      <stop offset="1" stop-color="#39C564"/>
    </linearGradient>
    <linearGradient id="paint1_linear_1725_1108" x1="50.7521" y1="24.3674" x2="25.5132" y2="49.2311" gradientUnits="userSpaceOnUse">
      <stop stop-color="white" stop-opacity="0.68"/>
      <stop offset="1" stop-color="white" stop-opacity="0.69"/>
    </linearGradient>
  </defs>
</svg>